<mxfile modified="2021-02-22T11:18:08.620Z" host="app.diagrams.net" agent="5.0 (Macintosh; Intel Mac OS X 10_15_7) AppleWebKit/537.36 (KHTML, like Gecko) Chrome/88.0.4324.182 Safari/537.36" etag="RBOv_mGyWenYfIa3m6mh" version="14.4.2" type="github">
  <diagram id="Ht1M8jgEwFfnCIfOTk4-" name="Page-1">
    <mxGraphModel dx="1186" dy="1623" grid="1" gridSize="10" guides="1" tooltips="1" connect="1" arrows="1" fold="1" page="1" pageScale="1" pageWidth="1169" pageHeight="827" math="0" shadow="0">
      <root>
        <mxCell id="0" />
        <mxCell id="1" parent="0" />
        <mxCell id="bqKWSesU9pjCV_K18F99-3" value="Device Farm" style="fillColor=none;strokeColor=#5A6C86;dashed=1;verticalAlign=top;fontStyle=0;fontColor=#5A6C86;" vertex="1" parent="1">
          <mxGeometry x="30" y="-650" width="540" height="369.99999999999994" as="geometry" />
        </mxCell>
        <mxCell id="bqKWSesU9pjCV_K18F99-15" value="" style="group" vertex="1" connectable="0" parent="1">
          <mxGeometry x="30" y="-649.99" width="540" height="370" as="geometry" />
        </mxCell>
        <mxCell id="bqKWSesU9pjCV_K18F99-1" value="" style="points=[[0,0,0],[0.25,0,0],[0.5,0,0],[0.75,0,0],[1,0,0],[0,1,0],[0.25,1,0],[0.5,1,0],[0.75,1,0],[1,1,0],[0,0.25,0],[0,0.5,0],[0,0.75,0],[1,0.25,0],[1,0.5,0],[1,0.75,0]];outlineConnect=0;fontColor=#232F3E;gradientColor=#F54749;gradientDirection=north;fillColor=#C7131F;strokeColor=#ffffff;dashed=0;verticalLabelPosition=bottom;verticalAlign=top;align=center;html=1;fontSize=12;fontStyle=0;aspect=fixed;shape=mxgraph.aws4.resourceIcon;resIcon=mxgraph.aws4.device_farm;" vertex="1" parent="bqKWSesU9pjCV_K18F99-15">
          <mxGeometry width="80.16666666666666" height="80.16666666666666" as="geometry" />
        </mxCell>
        <mxCell id="UEzPUAAOIrF-is8g5C7q-172" style="edgeStyle=orthogonalEdgeStyle;rounded=0;orthogonalLoop=1;jettySize=auto;html=1;startArrow=none;startFill=0;endArrow=open;endFill=0;strokeColor=#808080;strokeWidth=2;" parent="1" source="UEzPUAAOIrF-is8g5C7q-156" target="UEzPUAAOIrF-is8g5C7q-158" edge="1">
          <mxGeometry relative="1" as="geometry">
            <Array as="points">
              <mxPoint x="950" y="-243" />
              <mxPoint x="950" y="-186" />
            </Array>
          </mxGeometry>
        </mxCell>
        <mxCell id="UEzPUAAOIrF-is8g5C7q-173" style="edgeStyle=orthogonalEdgeStyle;rounded=0;orthogonalLoop=1;jettySize=auto;html=1;startArrow=none;startFill=0;endArrow=open;endFill=0;strokeColor=#808080;strokeWidth=2;" parent="1" source="UEzPUAAOIrF-is8g5C7q-157" target="UEzPUAAOIrF-is8g5C7q-158" edge="1">
          <mxGeometry relative="1" as="geometry">
            <Array as="points">
              <mxPoint x="950" y="-135" />
              <mxPoint x="950" y="-186" />
            </Array>
          </mxGeometry>
        </mxCell>
        <mxCell id="UEzPUAAOIrF-is8g5C7q-155" value="" style="rounded=0;whiteSpace=wrap;html=1;dashed=1;labelBackgroundColor=#ffffff;fillColor=none;gradientColor=none;" parent="1" vertex="1">
          <mxGeometry x="721" y="-270" width="185" height="230" as="geometry" />
        </mxCell>
        <mxCell id="UEzPUAAOIrF-is8g5C7q-156" value="Test Report" style="outlineConnect=0;fontColor=#232F3E;gradientColor=none;fillColor=#BC1356;strokeColor=none;dashed=0;verticalLabelPosition=bottom;verticalAlign=top;align=center;html=1;fontSize=12;fontStyle=0;aspect=fixed;pointerEvents=1;shape=mxgraph.aws4.template;labelBackgroundColor=#ffffff;" parent="1" vertex="1">
          <mxGeometry x="781" y="-260" width="65" height="78" as="geometry" />
        </mxCell>
        <mxCell id="UEzPUAAOIrF-is8g5C7q-157" value="Test Report" style="outlineConnect=0;fontColor=#232F3E;gradientColor=none;fillColor=#BC1356;strokeColor=none;dashed=0;verticalLabelPosition=bottom;verticalAlign=top;align=center;html=1;fontSize=12;fontStyle=0;aspect=fixed;pointerEvents=1;shape=mxgraph.aws4.template;labelBackgroundColor=#ffffff;" parent="1" vertex="1">
          <mxGeometry x="786" y="-150" width="65" height="78" as="geometry" />
        </mxCell>
        <mxCell id="UEzPUAAOIrF-is8g5C7q-158" value="Amazon S3&lt;br&gt;Bucket&lt;br&gt;" style="outlineConnect=0;fontColor=#232F3E;gradientColor=none;fillColor=#277116;strokeColor=none;dashed=0;verticalLabelPosition=bottom;verticalAlign=top;align=center;html=1;fontSize=12;fontStyle=0;aspect=fixed;pointerEvents=1;shape=mxgraph.aws4.bucket_with_objects;labelBackgroundColor=#ffffff;" parent="1" vertex="1">
          <mxGeometry x="1008.5" y="-225" width="75" height="78" as="geometry" />
        </mxCell>
        <mxCell id="bqKWSesU9pjCV_K18F99-26" value="" style="group" vertex="1" connectable="0" parent="1">
          <mxGeometry x="380" y="-598" width="80" height="88" as="geometry" />
        </mxCell>
        <mxCell id="bqKWSesU9pjCV_K18F99-27" value="&lt;br&gt;&lt;br&gt;Uploaded App File&lt;br&gt;" style="shape=note;whiteSpace=wrap;html=1;backgroundOutline=1;darkOpacity=0.05;" vertex="1" parent="bqKWSesU9pjCV_K18F99-26">
          <mxGeometry x="17.77777777777778" width="62.22222222222222" height="78.22222222222221" as="geometry" />
        </mxCell>
        <mxCell id="bqKWSesU9pjCV_K18F99-28" value="" style="points=[[0,0,0],[0.25,0,0],[0.5,0,0],[0.75,0,0],[1,0,0],[0,1,0],[0.25,1,0],[0.5,1,0],[0.75,1,0],[1,1,0],[0,0.25,0],[0,0.5,0],[0,0.75,0],[1,0.25,0],[1,0.5,0],[1,0.75,0]];outlineConnect=0;fontColor=#232F3E;gradientColor=#4D72F3;gradientDirection=north;fillColor=#3334B9;strokeColor=#ffffff;dashed=0;verticalLabelPosition=bottom;verticalAlign=top;align=center;html=1;fontSize=12;fontStyle=0;aspect=fixed;shape=mxgraph.aws4.resourceIcon;resIcon=mxgraph.aws4.codeartifact;" vertex="1" parent="bqKWSesU9pjCV_K18F99-26">
          <mxGeometry y="57.03703703703703" width="30.962962962962962" height="30.962962962962962" as="geometry" />
        </mxCell>
        <mxCell id="bqKWSesU9pjCV_K18F99-33" value="" style="group" vertex="1" connectable="0" parent="1">
          <mxGeometry x="70" y="-510" width="95" height="104" as="geometry" />
        </mxCell>
        <mxCell id="bqKWSesU9pjCV_K18F99-34" value="" style="shape=note;whiteSpace=wrap;html=1;backgroundOutline=1;darkOpacity=0.05;" vertex="1" parent="bqKWSesU9pjCV_K18F99-33">
          <mxGeometry width="55.416666666666664" height="74.50746268656717" as="geometry" />
        </mxCell>
        <mxCell id="bqKWSesU9pjCV_K18F99-35" value="" style="shape=note;whiteSpace=wrap;html=1;backgroundOutline=1;darkOpacity=0.05;" vertex="1" parent="bqKWSesU9pjCV_K18F99-33">
          <mxGeometry x="7.916666666666666" y="7.7611940298507465" width="55.416666666666664" height="74.50746268656717" as="geometry" />
        </mxCell>
        <mxCell id="bqKWSesU9pjCV_K18F99-36" value="" style="shape=note;whiteSpace=wrap;html=1;backgroundOutline=1;darkOpacity=0.05;" vertex="1" parent="bqKWSesU9pjCV_K18F99-33">
          <mxGeometry x="15.833333333333332" y="15.522388059701493" width="55.416666666666664" height="74.50746268656717" as="geometry" />
        </mxCell>
        <mxCell id="bqKWSesU9pjCV_K18F99-37" value="Uploaded&lt;br&gt;Test Suite" style="shape=note;whiteSpace=wrap;html=1;backgroundOutline=1;darkOpacity=0.05;" vertex="1" parent="bqKWSesU9pjCV_K18F99-33">
          <mxGeometry x="23.75" y="23.28358208955224" width="55.416666666666664" height="74.50746268656717" as="geometry" />
        </mxCell>
        <mxCell id="bqKWSesU9pjCV_K18F99-38" value="" style="points=[[0,0,0],[0.25,0,0],[0.5,0,0],[0.75,0,0],[1,0,0],[0,1,0],[0.25,1,0],[0.5,1,0],[0.75,1,0],[1,1,0],[0,0.25,0],[0,0.5,0],[0,0.75,0],[1,0.25,0],[1,0.5,0],[1,0.75,0]];outlineConnect=0;fontColor=#232F3E;gradientColor=#4D72F3;gradientDirection=north;fillColor=#3334B9;strokeColor=#ffffff;dashed=0;verticalLabelPosition=bottom;verticalAlign=top;align=center;html=1;fontSize=12;fontStyle=0;aspect=fixed;shape=mxgraph.aws4.resourceIcon;resIcon=mxgraph.aws4.codeartifact;" vertex="1" parent="bqKWSesU9pjCV_K18F99-33">
          <mxGeometry x="64.91666666666666" y="74.50746268656717" width="29.492537313432837" height="29.492537313432837" as="geometry" />
        </mxCell>
        <mxCell id="bqKWSesU9pjCV_K18F99-23" value="Device Pool" style="outlineConnect=0;gradientColor=none;fontColor=#545B64;strokeColor=none;fillColor=#879196;dashed=0;verticalLabelPosition=bottom;verticalAlign=top;align=center;html=1;fontSize=12;fontStyle=0;aspect=fixed;shape=mxgraph.aws4.illustration_devices;pointerEvents=1" vertex="1" parent="1">
          <mxGeometry x="220" y="-450" width="160" height="116.8" as="geometry" />
        </mxCell>
        <mxCell id="bqKWSesU9pjCV_K18F99-41" style="edgeStyle=orthogonalEdgeStyle;rounded=0;orthogonalLoop=1;jettySize=auto;html=1;exitX=0.5;exitY=1;exitDx=0;exitDy=0;exitPerimeter=0;" edge="1" parent="1" source="bqKWSesU9pjCV_K18F99-37" target="bqKWSesU9pjCV_K18F99-23">
          <mxGeometry relative="1" as="geometry" />
        </mxCell>
        <mxCell id="bqKWSesU9pjCV_K18F99-42" value="Run test" style="edgeLabel;html=1;align=center;verticalAlign=middle;resizable=0;points=[];" vertex="1" connectable="0" parent="bqKWSesU9pjCV_K18F99-41">
          <mxGeometry x="0.1604" relative="1" as="geometry">
            <mxPoint as="offset" />
          </mxGeometry>
        </mxCell>
        <mxCell id="bqKWSesU9pjCV_K18F99-43" style="edgeStyle=orthogonalEdgeStyle;rounded=0;orthogonalLoop=1;jettySize=auto;html=1;entryX=0.325;entryY=0.997;entryDx=0;entryDy=0;entryPerimeter=0;endArrow=classic;endFill=1;" edge="1" parent="1" source="bqKWSesU9pjCV_K18F99-23" target="bqKWSesU9pjCV_K18F99-27">
          <mxGeometry relative="1" as="geometry">
            <mxPoint x="427.9983333333332" y="-509.9989552238806" as="sourcePoint" />
            <mxPoint x="526.54" y="-489.38999999999993" as="targetPoint" />
            <Array as="points">
              <mxPoint x="418" y="-390" />
            </Array>
          </mxGeometry>
        </mxCell>
        <mxCell id="bqKWSesU9pjCV_K18F99-46" value="EC2 instance" style="points=[[0,0],[0.25,0],[0.5,0],[0.75,0],[1,0],[1,0.25],[1,0.5],[1,0.75],[1,1],[0.75,1],[0.5,1],[0.25,1],[0,1],[0,0.75],[0,0.5],[0,0.25]];outlineConnect=0;gradientColor=none;html=1;whiteSpace=wrap;fontSize=12;fontStyle=0;shape=mxgraph.aws4.group;grIcon=mxgraph.aws4.group_ec2_instance_contents;strokeColor=#D86613;fillColor=none;verticalAlign=top;align=left;spacingLeft=30;fontColor=#D86613;dashed=0;" vertex="1" parent="1">
          <mxGeometry x="650" y="-650" width="190" height="180" as="geometry" />
        </mxCell>
        <mxCell id="bqKWSesU9pjCV_K18F99-47" value="API&amp;nbsp;&lt;br&gt;Simulator" style="whiteSpace=wrap;html=1;aspect=fixed;" vertex="1" parent="1">
          <mxGeometry x="706" y="-600" width="80" height="80" as="geometry" />
        </mxCell>
        <mxCell id="bqKWSesU9pjCV_K18F99-49" value="Lambda Function" style="points=[[0,0,0],[0.25,0,0],[0.5,0,0],[0.75,0,0],[1,0,0],[0,1,0],[0.25,1,0],[0.5,1,0],[0.75,1,0],[1,1,0],[0,0.25,0],[0,0.5,0],[0,0.75,0],[1,0.25,0],[1,0.5,0],[1,0.75,0]];outlineConnect=0;fontColor=#232F3E;gradientColor=#F78E04;gradientDirection=north;fillColor=#D05C17;strokeColor=#ffffff;dashed=0;verticalLabelPosition=bottom;verticalAlign=top;align=center;html=1;fontSize=12;fontStyle=0;aspect=fixed;shape=mxgraph.aws4.resourceIcon;resIcon=mxgraph.aws4.lambda;" vertex="1" parent="1">
          <mxGeometry x="440" y="-210" width="78" height="78" as="geometry" />
        </mxCell>
        <mxCell id="bqKWSesU9pjCV_K18F99-51" value="" style="outlineConnect=0;fontColor=#232F3E;gradientColor=none;fillColor=#BC1356;strokeColor=none;dashed=0;verticalLabelPosition=bottom;verticalAlign=top;align=center;html=1;fontSize=12;fontStyle=0;aspect=fixed;pointerEvents=1;shape=mxgraph.aws4.event_event_based;" vertex="1" parent="1">
          <mxGeometry x="250" y="-210" width="78" height="78" as="geometry" />
        </mxCell>
        <mxCell id="bqKWSesU9pjCV_K18F99-52" value="Redis" style="outlineConnect=0;fontColor=#232F3E;gradientColor=none;fillColor=#3334B9;strokeColor=none;dashed=0;verticalLabelPosition=bottom;verticalAlign=top;align=center;html=1;fontSize=12;fontStyle=0;aspect=fixed;pointerEvents=1;shape=mxgraph.aws4.elasticache_for_redis;" vertex="1" parent="1">
          <mxGeometry x="940" y="-649.99" width="146.95" height="129.99" as="geometry" />
        </mxCell>
      </root>
    </mxGraphModel>
  </diagram>
</mxfile>
